<?xml version="1.0" encoding="utf-8"?>
<!-- Generator: Adobe Illustrator 25.2.0, SVG Export Plug-In . SVG Version: 6.00 Build 0)  -->
<svg version="1.1" id="Layer_1" xmlns="http://www.w3.org/2000/svg" xmlns:xlink="http://www.w3.org/1999/xlink" x="0px" y="0px"
	 viewBox="0 0 54 33" style="enable-background:new 0 0 54 33;" xml:space="preserve">
<style type="text/css">
	.st0{fill-rule:evenodd;clip-rule:evenodd;fill:#38BDF8;}
	.st1{display:none;fill-rule:evenodd;clip-rule:evenodd;fill:#FFFFFF;}
</style>
<path class="st0" d="M27,0.3c-7.2,0-11.7,3.6-13.5,10.8c2.7-3.6,5.9-5,9.5-4.1c2.1,0.5,3.5,2,5.1,3.7c2.6,2.7,5.7,5.8,12.4,5.8
	c7.2,0,11.7-3.6,13.5-10.8c-2.7,3.6-5.8,5-9.5,4c-2.1-0.5-3.5-2-5.1-3.7C36.8,3.4,33.7,0.3,27,0.3z M13.5,16.5
	C6.3,16.5,1.8,20.1,0,27.3c2.7-3.6,5.8-5,9.4-4c2.1,0.5,3.5,2,5.1,3.7c2.6,2.7,5.7,5.8,12.4,5.8c7.2,0,11.7-3.6,13.5-10.8
	c-2.7,3.6-5.8,4.9-9.5,4c-2.1-0.5-3.5-2-5.1-3.7C23.3,19.6,20.2,16.5,13.5,16.5z"/>
<path class="st1" d="M39.8-65.2h-4.7v9.1c0,2.4,1.6,2.4,4.7,2.2v3.7c-6.3,0.8-8.8-1-8.8-5.9v-9.1h-3.5v-4H31v-5.1l4.1-1.2v6.3h4.7
	V-65.2z M57.8-69.1h4.1v19h-4.1v-2.7c-1.4,2-3.7,3.2-6.7,3.2c-5.2,0-9.5-4.4-9.5-10c0-5.7,4.3-10,9.5-10c3,0,5.2,1.2,6.7,3.2V-69.1z
	 M51.8-53.5c3.4,0,6-2.5,6-6.1c0-3.5-2.6-6.1-6-6.1c-3.4,0-6,2.5-6,6.1C45.8-56.1,48.4-53.5,51.8-53.5z M68.7-72
	c-1.4,0-2.6-1.2-2.6-2.6c0-0.7,0.3-1.4,0.8-1.9c0.5-0.5,1.2-0.8,1.9-0.8c0.7,0,1.4,0.3,1.9,0.8c0.5,0.5,0.8,1.2,0.8,1.9
	C71.4-73.2,70.2-72,68.7-72z M66.7-50.1v-19h4.1v19H66.7z M75.5-50.1v-27.7h4.1v27.7H75.5z M106.3-69.1h4.3l-6,19h-4l-4-12.8
	l-4,12.8h-4l-6-19H87L90.7-56l4-13.1h3.9l4,13.1L106.3-69.1z M115.7-72c-1.4,0-2.6-1.2-2.6-2.6c0-0.7,0.3-1.4,0.8-1.9
	c0.5-0.5,1.2-0.8,1.9-0.8c0.7,0,1.4,0.3,1.9,0.8c0.5,0.5,0.8,1.2,0.8,1.9C118.3-73.2,117.2-72,115.7-72z M113.7-50.1v-19h4.1v19
	H113.7z M132.5-69.6c4.3,0,7.3,2.9,7.3,7.8v11.7h-4.1v-11.2c0-2.9-1.7-4.4-4.3-4.4c-2.7,0-4.8,1.6-4.8,5.5v10.2h-4.1v-19h4.1v2.4
	C127.9-68.7,129.9-69.6,132.5-69.6z M159.3-76.7h4.1v26.6h-4.1v-2.7c-1.4,2-3.7,3.2-6.6,3.2c-5.2,0-9.5-4.4-9.5-10
	c0-5.7,4.3-10,9.5-10c3,0,5.2,1.2,6.6,3.2V-76.7z M153.3-53.5c3.4,0,6-2.5,6-6.1c0-3.5-2.6-6.1-6-6.1s-6,2.5-6,6.1
	C147.2-56.1,149.8-53.5,153.3-53.5z M177.1-49.6c-5.7,0-10-4.4-10-10c0-5.7,4.3-10,10-10c3.7,0,7,1.9,8.5,4.9l-3.5,2.1
	c-0.8-1.8-2.7-2.9-5-2.9c-3.3,0-5.9,2.5-5.9,6c0,3.4,2.5,6,5.9,6c2.3,0,4.1-1.2,5.1-2.9l3.5,2C184.1-51.6,180.8-49.6,177.1-49.6z
	 M192.4-63.9c0,3.5,10.2,1.4,10.2,8.4c0,3.8-3.3,5.9-7.4,5.9c-3.8,0-6.5-1.7-7.8-4.4l3.5-2.1c0.6,1.7,2.1,2.7,4.2,2.7
	c1.8,0,3.2-0.6,3.2-2.1c0-3.4-10.2-1.5-10.2-8.3c0-3.6,3.1-5.8,7-5.8c3.1,0,5.7,1.4,7,4l-3.5,1.9c-0.7-1.5-2-2.2-3.6-2.2
	C193.7-65.9,192.4-65.2,192.4-63.9z M209.9-63.9c0,3.5,10.2,1.4,10.2,8.4c0,3.8-3.3,5.9-7.4,5.9c-3.8,0-6.5-1.7-7.8-4.4l3.5-2.1
	c0.6,1.7,2.1,2.7,4.2,2.7c1.8,0,3.2-0.6,3.2-2.1c0-3.4-10.2-1.5-10.2-8.3c0-3.6,3.1-5.8,7-5.8c3.1,0,5.7,1.4,7,4l-3.5,1.9
	c-0.7-1.5-2-2.2-3.6-2.2C211.2-65.9,209.9-65.2,209.9-63.9z"/>
</svg>
